<mxfile host="Electron" agent="Mozilla/5.0 (Windows NT 10.0; Win64; x64) AppleWebKit/537.36 (KHTML, like Gecko) draw.io/26.0.16 Chrome/132.0.6834.196 Electron/34.2.0 Safari/537.36" version="26.0.16">
  <diagram name="Seite-1" id="mQSNCqU-URrF9noQVgQa">
    <mxGraphModel dx="378" dy="269" grid="1" gridSize="10" guides="1" tooltips="1" connect="1" arrows="1" fold="1" page="1" pageScale="1" pageWidth="827" pageHeight="1169" math="0" shadow="0">
      <root>
        <mxCell id="0" />
        <mxCell id="1" parent="0" />
        <mxCell id="1jrdNp0M8J12RakMBeQd-8" value="" style="edgeStyle=orthogonalEdgeStyle;rounded=0;orthogonalLoop=1;jettySize=auto;html=1;endArrow=none;startFill=0;" edge="1" parent="1" source="1jrdNp0M8J12RakMBeQd-1" target="1jrdNp0M8J12RakMBeQd-3">
          <mxGeometry relative="1" as="geometry" />
        </mxCell>
        <mxCell id="1jrdNp0M8J12RakMBeQd-9" value="1" style="edgeLabel;html=1;align=center;verticalAlign=middle;resizable=0;points=[];" vertex="1" connectable="0" parent="1jrdNp0M8J12RakMBeQd-8">
          <mxGeometry x="-0.7256" y="1" relative="1" as="geometry">
            <mxPoint x="9" as="offset" />
          </mxGeometry>
        </mxCell>
        <mxCell id="1jrdNp0M8J12RakMBeQd-10" value="mc" style="edgeLabel;html=1;align=center;verticalAlign=middle;resizable=0;points=[];" vertex="1" connectable="0" parent="1jrdNp0M8J12RakMBeQd-8">
          <mxGeometry x="0.7819" y="1" relative="1" as="geometry">
            <mxPoint x="9" as="offset" />
          </mxGeometry>
        </mxCell>
        <mxCell id="1jrdNp0M8J12RakMBeQd-1" value="Lernender" style="rounded=1;whiteSpace=wrap;html=1;" vertex="1" parent="1">
          <mxGeometry x="170" y="110" width="120" height="60" as="geometry" />
        </mxCell>
        <mxCell id="1jrdNp0M8J12RakMBeQd-5" style="edgeStyle=orthogonalEdgeStyle;rounded=0;orthogonalLoop=1;jettySize=auto;html=1;endArrow=none;startFill=0;" edge="1" parent="1" source="1jrdNp0M8J12RakMBeQd-2" target="1jrdNp0M8J12RakMBeQd-1">
          <mxGeometry relative="1" as="geometry" />
        </mxCell>
        <mxCell id="1jrdNp0M8J12RakMBeQd-6" value="m" style="edgeLabel;html=1;align=center;verticalAlign=middle;resizable=0;points=[];" vertex="1" connectable="0" parent="1jrdNp0M8J12RakMBeQd-5">
          <mxGeometry x="0.8035" y="-2" relative="1" as="geometry">
            <mxPoint y="-8" as="offset" />
          </mxGeometry>
        </mxCell>
        <mxCell id="1jrdNp0M8J12RakMBeQd-7" value="m" style="edgeLabel;html=1;align=center;verticalAlign=middle;resizable=0;points=[];" vertex="1" connectable="0" parent="1jrdNp0M8J12RakMBeQd-5">
          <mxGeometry x="-0.807" relative="1" as="geometry">
            <mxPoint y="-10" as="offset" />
          </mxGeometry>
        </mxCell>
        <mxCell id="1jrdNp0M8J12RakMBeQd-2" value="Berufsbildner" style="rounded=1;whiteSpace=wrap;html=1;" vertex="1" parent="1">
          <mxGeometry x="480" y="110" width="120" height="60" as="geometry" />
        </mxCell>
        <mxCell id="1jrdNp0M8J12RakMBeQd-12" value="" style="edgeStyle=orthogonalEdgeStyle;rounded=0;orthogonalLoop=1;jettySize=auto;html=1;entryX=0;entryY=0.5;entryDx=0;entryDy=0;endArrow=none;startFill=0;" edge="1" parent="1" source="1jrdNp0M8J12RakMBeQd-3" target="1jrdNp0M8J12RakMBeQd-4">
          <mxGeometry relative="1" as="geometry">
            <mxPoint x="390" y="300" as="targetPoint" />
          </mxGeometry>
        </mxCell>
        <mxCell id="1jrdNp0M8J12RakMBeQd-13" value="mc" style="edgeLabel;html=1;align=center;verticalAlign=middle;resizable=0;points=[];" vertex="1" connectable="0" parent="1jrdNp0M8J12RakMBeQd-12">
          <mxGeometry x="-0.8403" y="2" relative="1" as="geometry">
            <mxPoint y="-8" as="offset" />
          </mxGeometry>
        </mxCell>
        <mxCell id="1jrdNp0M8J12RakMBeQd-14" value="1" style="edgeLabel;html=1;align=center;verticalAlign=middle;resizable=0;points=[];" vertex="1" connectable="0" parent="1jrdNp0M8J12RakMBeQd-12">
          <mxGeometry x="0.884" y="4" relative="1" as="geometry">
            <mxPoint y="-6" as="offset" />
          </mxGeometry>
        </mxCell>
        <mxCell id="1jrdNp0M8J12RakMBeQd-3" value="PrÃ¼fung" style="rounded=1;whiteSpace=wrap;html=1;" vertex="1" parent="1">
          <mxGeometry x="170" y="270" width="120" height="60" as="geometry" />
        </mxCell>
        <mxCell id="1jrdNp0M8J12RakMBeQd-4" value="Semester" style="rounded=1;whiteSpace=wrap;html=1;" vertex="1" parent="1">
          <mxGeometry x="480" y="270" width="120" height="60" as="geometry" />
        </mxCell>
      </root>
    </mxGraphModel>
  </diagram>
</mxfile>
